<svg id="visual" viewBox="0 0 540 960" width="540" height="960" xmlns="http://www.w3.org/2000/svg" xmlns:xlink="http://www.w3.org/1999/xlink" version="1.1"><rect x="0" y="0" width="540" height="960" fill="#002233"></rect><path d="M0 134L11.3 128.3C22.7 122.7 45.3 111.3 67.8 106C90.3 100.7 112.7 101.3 135.2 104.2C157.7 107 180.3 112 202.8 112.8C225.3 113.7 247.7 110.3 270.2 98C292.7 85.7 315.3 64.3 337.8 57.5C360.3 50.7 382.7 58.3 405.2 75C427.7 91.7 450.3 117.3 472.8 122.3C495.3 127.3 517.7 111.7 528.8 103.8L540 96L540 0L528.8 0C517.7 0 495.3 0 472.8 0C450.3 0 427.7 0 405.2 0C382.7 0 360.3 0 337.8 0C315.3 0 292.7 0 270.2 0C247.7 0 225.3 0 202.8 0C180.3 0 157.7 0 135.2 0C112.7 0 90.3 0 67.8 0C45.3 0 22.7 0 11.3 0L0 0Z" fill="#2d0171" stroke-linecap="round" stroke-linejoin="miter"></path></svg>